<?xml version="1.0" standalone="no"?>
<!DOCTYPE svg PUBLIC "-//W3C//DTD SVG 20010904//EN"
 "http://www.w3.org/TR/2001/REC-SVG-20010904/DTD/svg10.dtd">
<svg version="1.0" xmlns="http://www.w3.org/2000/svg"
 width="800.000000pt" height="800.000000pt" viewBox="0 0 800.000000 800.000000"
 preserveAspectRatio="xMidYMid meet">
<metadata>
Created by potrace 1.14, written by Peter Selinger 2001-2017
</metadata>
<g transform="translate(0.000000,800.000000) scale(0.100000,-0.100000)"
fill="#000000" stroke="none">
<path d="M0 5795 l0 -2045 113 -1 c176 -1 301 2 306 6 2 3 4 829 5 1837 l1
1833 3511 2 3511 1 -1 -676 -1 -677 -352 -5 -353 -5 -39 -80 c-48 -101 -87
-183 -100 -215 -6 -14 -15 -32 -20 -40 -5 -8 -22 -44 -39 -80 -17 -36 -60
-127 -96 -202 -36 -76 -66 -142 -66 -148 0 -5 -4 -10 -10 -10 -5 0 -10 -5 -10
-11 0 -6 -30 -72 -67 -147 -37 -76 -68 -139 -68 -142 -2 -9 -225 -465 -235
-480 -6 -8 -14 -24 -19 -35 -24 -53 -215 -443 -353 -720 -260 -522 -321 -640
-332 -647 -6 -4 -8 -8 -4 -8 4 0 -6 -25 -22 -55 -17 -30 -43 -80 -60 -111 -16
-30 -30 -62 -30 -70 0 -41 -35 -2 -91 104 -34 64 -79 149 -99 187 -21 39 -57
106 -80 150 -23 44 -60 113 -81 153 -81 151 -118 220 -169 317 -29 55 -60 114
-70 130 -10 17 -44 82 -78 145 -33 63 -70 133 -82 155 -12 22 -38 72 -58 110
-19 39 -41 77 -48 85 -7 8 -13 19 -13 23 0 7 -127 248 -251 478 -26 48 -57
106 -69 130 -12 24 -34 64 -47 89 -14 25 -50 92 -80 150 -31 58 -59 112 -64
120 -9 14 -70 128 -190 355 -76 145 -131 247 -152 286 l-20 36 -258 1 -258 1
40 -77 c22 -42 50 -95 62 -117 12 -22 40 -74 61 -115 22 -41 43 -76 48 -78 4
-2 7 -8 7 -12 0 -5 41 -85 91 -177 51 -92 107 -197 127 -233 19 -36 42 -78 52
-95 9 -16 38 -68 63 -115 25 -47 66 -123 91 -170 26 -47 54 -101 64 -120 9
-19 19 -37 22 -40 3 -3 13 -21 24 -40 52 -99 106 -200 128 -240 14 -25 55
-101 92 -170 36 -69 71 -132 76 -140 5 -8 18 -31 28 -50 32 -61 103 -192 141
-260 21 -36 47 -85 60 -110 12 -25 30 -58 40 -75 9 -16 38 -68 63 -115 25 -47
72 -134 105 -195 33 -60 76 -139 95 -175 47 -87 91 -168 130 -238 17 -31 47
-86 65 -122 19 -36 45 -83 57 -105 12 -22 43 -79 69 -127 25 -47 55 -101 65
-120 17 -30 45 -83 132 -243 95 -176 134 -245 141 -245 4 0 20 26 36 57 95
190 168 330 181 346 8 9 12 17 8 17 -4 0 1 15 12 33 19 32 178 340 321 622 42
83 78 152 81 155 3 3 38 70 79 150 71 141 206 404 338 660 36 69 70 131 75
138 6 6 7 12 3 12 -4 0 -3 6 3 13 5 6 45 82 89 167 134 259 235 455 343 665
56 110 131 254 165 320 34 66 90 175 125 242 l62 121 357 1 c196 0 375 0 399
0 l42 1 0 1085 0 1085 -3935 0 -3935 0 0 -2045z"/>
<path d="M780 6066 c0 -2 33 -68 74 -147 41 -79 103 -200 138 -269 36 -69 90
-172 120 -230 30 -58 95 -181 143 -275 123 -239 186 -358 198 -372 5 -7 6 -13
2 -13 -4 0 -3 -6 3 -12 9 -12 42 -73 176 -333 23 -44 46 -87 51 -95 5 -8 10
-17 10 -20 1 -6 34 -70 105 -205 26 -49 81 -155 122 -235 42 -80 111 -212 154
-295 42 -82 84 -163 92 -180 8 -16 22 -38 30 -47 8 -10 13 -18 9 -18 -3 0 14
-37 38 -82 24 -46 74 -141 110 -213 37 -71 89 -170 115 -220 26 -49 91 -174
144 -276 l96 -186 -1333 -1 c-732 0 -1342 -1 -1354 -1 l-23 -1 0 -1090 0
-1090 3935 0 3935 0 0 2050 c0 1946 -1 2050 -17 2050 -165 3 -396 0 -400 -4
-4 -3 -7 -833 -7 -1843 l-1 -1838 -3510 0 -3510 0 -1 682 -1 682 197 0 c109 0
201 1 206 2 5 1 14 1 19 0 26 -5 216 -1 224 4 5 3 12 2 14 -2 3 -5 58 -6 122
-3 64 3 118 3 120 2 4 -4 283 -5 300 -1 6 1 15 1 20 0 12 -2 771 -2 782 0 4 1
13 1 18 0 26 -5 216 -1 224 4 5 3 12 2 14 -2 3 -5 58 -6 123 -3 l118 5 114
225 114 225 -71 142 c-39 79 -71 146 -70 149 0 4 -3 10 -8 13 -10 7 -312 613
-312 625 1 5 -3 12 -8 15 -4 3 -276 541 -603 1196 -327 655 -598 1192 -602
1193 -5 2 -8 9 -8 15 0 7 -36 82 -79 167 l-78 155 -266 2 c-147 1 -267 1 -267
-1z"/>
</g>
</svg>
